<?xml version="1.0" standalone="no"?>
<!DOCTYPE svg PUBLIC "-//W3C//DTD SVG 20010904//EN"
 "http://www.w3.org/TR/2001/REC-SVG-20010904/DTD/svg10.dtd">
<svg version="1.0" xmlns="http://www.w3.org/2000/svg"
 width="1660.000000pt" height="720.000000pt" viewBox="0 0 1660.000000 720.000000"
 preserveAspectRatio="xMidYMid meet">

<g transform="translate(0.000000,720.000000) scale(0.100000,-0.100000)"
fill="#000000" stroke="none">
<path d="M11247 6043 c-9 -11 -17 -31 -17 -45 0 -16 -9 -32 -25 -42 -21 -14
-25 -24 -25 -62 l0 -45 34 6 c24 5 35 3 39 -8 4 -12 -8 -16 -57 -22 -69 -7
-137 -35 -217 -89 l-53 -35 -24 24 c-36 36 -76 33 -128 -10 -30 -25 -47 -49
-59 -85 -20 -60 -56 -90 -177 -148 -97 -47 -172 -112 -209 -183 -22 -41 -24
-57 -27 -242 -2 -109 -1 -208 2 -220 3 -12 24 -42 47 -66 43 -46 60 -85 79
-184 13 -63 29 -78 64 -57 20 13 20 12 5 -11 -24 -36 -56 -37 -71 -2 l-12 28
-4 -38 c-2 -21 1 -68 7 -104 8 -54 7 -68 -4 -80 -14 -14 -20 -53 -15 -98 1
-11 13 -54 27 -95 22 -66 25 -87 20 -180 -7 -159 9 -211 92 -308 102 -119 126
-152 164 -227 38 -75 111 -167 161 -202 78 -56 389 -57 475 -2 12 8 6 9 -25 5
-44 -6 -59 4 -98 67 -9 15 -21 25 -27 21 -6 -3 -13 3 -16 14 -7 29 -54 36 -75
12 -9 -11 -21 -20 -26 -20 -5 0 -12 -7 -16 -15 -7 -19 -26 -20 -26 -2 0 16
-40 40 -59 35 -10 -2 -14 12 -15 57 0 33 -5 63 -10 66 -29 21 18 28 198 29
135 0 211 5 250 15 62 16 161 63 152 72 -3 3 -11 1 -18 -4 -20 -16 -199 -26
-232 -13 -24 9 -26 13 -15 26 10 12 9 18 -3 30 -14 14 -17 13 -36 -10 -20 -26
-20 -26 -57 -9 -30 14 -33 18 -18 24 15 6 13 8 -7 8 -14 1 -40 15 -59 31 -30
28 -32 34 -26 70 5 27 2 49 -9 71 -9 18 -13 35 -10 38 3 3 81 9 172 12 160 6
305 28 326 49 13 13 -5 13 -76 -2 -76 -16 -166 1 -225 43 -37 26 -49 29 -118
29 -67 0 -79 3 -100 25 -38 38 -33 81 15 132 22 24 50 45 63 48 21 6 22 11 23
118 0 68 10 163 24 242 21 122 25 132 57 165 19 19 46 54 60 78 14 23 26 42
28 42 7 0 -8 -41 -16 -46 -22 -13 -6 -22 32 -17 70 10 181 -54 236 -134 13
-19 23 -42 23 -53 0 -10 5 -22 10 -25 11 -7 13 -67 4 -102 -4 -13 -10 -20 -15
-18 -4 3 -13 -4 -19 -15 -16 -29 -33 -25 -26 6 17 64 18 84 7 84 -6 0 -11 -10
-11 -23 0 -30 -56 -97 -81 -97 -27 0 -58 16 -94 50 -40 38 -74 41 -105 10
l-24 -24 -13 30 c-6 16 -13 52 -14 79 -1 41 -6 25 -30 -94 -20 -105 -25 -149
-18 -163 6 -10 8 -29 5 -41 -5 -19 -4 -18 7 3 6 14 24 46 40 71 l27 47 72 -19
c89 -23 166 -24 212 -2 28 13 41 14 60 5 20 -9 27 -8 37 4 8 10 20 13 33 9 12
-4 32 -8 46 -8 20 -2 31 -14 52 -57 15 -30 27 -63 27 -72 1 -18 12 -23 25 -11
4 4 27 6 51 4 75 -4 117 21 58 35 -31 7 -101 59 -150 111 -28 29 -33 41 -33
84 0 28 5 59 10 69 6 11 15 55 19 97 19 159 28 193 64 231 17 17 37 32 44 32
20 0 53 42 53 69 1 14 7 37 15 51 18 32 18 40 0 40 -13 0 -21 42 -12 68 3 9
40 4 47 -8 3 -5 18 -14 33 -19 31 -12 28 -31 -6 -32 -13 0 -4 -6 23 -15 93
-29 92 -15 -2 83 -86 88 -129 117 -160 108 -31 -10 -125 42 -133 73 -3 13 -1
30 6 38 16 20 -1 38 -52 53 -51 15 -58 9 -76 -61 -8 -29 -17 -56 -21 -60 -11
-10 -82 23 -82 39 0 11 8 14 29 11 26 -4 31 0 54 48 24 48 27 94 6 94 -4 0 -9
19 -11 42 l-3 42 -37 -58 c-21 -32 -38 -62 -38 -67 0 -4 -6 -12 -13 -16 -8 -4
-30 -37 -50 -73 -28 -50 -37 -81 -42 -135 -8 -79 -24 -105 -67 -105 -15 0 -28
-4 -28 -9 0 -4 -10 -19 -22 -32 -13 -14 -49 -68 -80 -120 -31 -53 -64 -101
-72 -108 -13 -11 -15 -6 -10 41 3 29 8 69 11 88 4 19 5 42 4 50 -2 8 0 57 4
108 l7 94 60 71 c33 40 64 74 69 75 5 2 9 10 9 18 0 8 5 14 10 14 6 0 10 7 10
15 0 8 5 15 10 15 6 0 10 4 10 10 0 5 6 18 14 27 8 10 31 38 51 62 20 24 41
53 46 63 6 11 28 43 50 71 21 29 39 58 39 66 0 7 16 36 35 62 36 50 44 82 23
95 -7 5 -4 10 10 15 20 7 22 16 22 73 0 57 -3 67 -22 80 -31 19 -102 23 -122
7 -19 -16 -66 -7 -66 14 0 19 -7 22 -70 30 -47 6 -58 4 -73 -12z m293 -161 c0
-21 -7 -47 -16 -58 -14 -18 -15 -15 -9 31 10 75 25 91 25 27z m-135 -42 c4 -6
28 -21 54 -35 27 -13 51 -31 54 -39 4 -9 -6 -28 -24 -47 -16 -17 -29 -36 -29
-41 0 -10 -70 -101 -82 -106 -4 -2 -24 -27 -45 -55 -43 -59 -103 -124 -103
-112 0 4 -9 0 -20 -10 -12 -10 -19 -24 -16 -31 3 -8 0 -11 -8 -8 -22 8 -66
-60 -66 -103 l0 -37 -17 24 c-57 85 -150 181 -197 206 -59 30 -83 50 -48 39
12 -3 32 -7 45 -9 13 -1 29 -6 36 -10 8 -5 16 -4 21 3 4 7 11 11 16 10 24 -6
63 14 66 34 2 15 9 21 21 19 17 -3 177 150 177 170 0 5 15 8 33 7 27 -3 41 4
72 33 33 31 37 39 26 52 -9 11 -10 16 -2 16 6 0 11 9 11 20 0 21 15 27 25 10z
m-205 -90 c0 -16 -7 -20 -30 -20 -35 0 -40 17 -7 30 33 13 37 12 37 -10z
m-308 -426 c74 -55 129 -155 127 -233 l-1 -46 -9 45 c-20 102 -105 219 -190
264 -34 17 -34 17 -4 11 16 -4 51 -22 77 -41z m793 5 c13 -13 -9 -32 -31 -27
-11 2 -20 13 -22 27 -3 20 -1 22 20 16 13 -4 27 -11 33 -16z m-901 -63 c124
-52 193 -207 150 -342 -21 -68 -105 -164 -142 -164 -18 0 -14 7 26 44 62 58
87 123 79 211 -8 106 -65 183 -169 229 -32 14 -58 28 -58 31 0 11 82 4 114 -9z
m796 -55 c0 -5 -5 -22 -11 -38 -9 -25 -12 -26 -20 -11 -7 12 -6 25 1 38 11 21
30 27 30 11z m-90 -39 c0 -16 -41 -166 -50 -183 -12 -22 -50 -13 -50 11 0 10
7 25 15 34 8 8 15 26 15 40 0 13 7 31 15 40 8 8 19 26 25 40 9 24 30 36 30 18z
m-989 -61 c-60 -117 -19 -247 96 -305 40 -20 119 -21 157 -1 34 18 39 19 30 4
-14 -24 -94 -50 -132 -45 -80 13 -93 19 -140 70 -88 97 -96 222 -20 303 30 32
33 22 9 -26z m857 -172 c-10 -49 -13 -57 -16 -34 -3 26 17 110 24 102 2 -2 -2
-32 -8 -68z m-81 -13 c-7 -65 -44 -136 -142 -271 -57 -78 -171 -290 -180 -335
-17 -79 -78 -156 -150 -186 -51 -21 -126 -27 -175 -14 -84 23 -166 98 -185
170 -5 23 -5 23 6 5 22 -38 84 -97 124 -117 56 -29 153 -35 211 -13 109 42
147 109 168 302 8 71 21 145 29 164 18 43 68 94 77 79 8 -12 47 38 142 183 32
48 63 87 69 87 8 0 10 -16 6 -54z m-266 -70 c-13 -76 -99 -366 -114 -384 -12
-15 -49 -12 -54 5 -3 7 3 9 16 6 12 -3 23 2 29 14 20 37 102 321 114 393 7 41
15 64 16 51 2 -13 -1 -51 -7 -85z m-286 -256 c3 -6 -1 -7 -9 -4 -18 7 -21 14
-7 14 6 0 13 -4 16 -10z m2 -30 c20 0 73 -51 93 -91 45 -87 10 -203 -74 -245
l-31 -15 37 38 c20 21 42 51 47 66 28 74 -2 170 -65 212 -71 45 -72 46 -44 41
14 -3 30 -6 37 -6z m-184 -120 c-33 -93 15 -177 114 -198 l48 -10 -48 -1 c-59
-1 -89 17 -124 76 -29 50 -29 113 2 159 24 36 27 26 8 -26z m757 -82 c0 -5 -9
-4 -20 2 -11 6 -20 12 -20 14 0 2 9 2 20 -1 11 -3 20 -9 20 -15z m375 -8 c3
-5 -1 -10 -9 -10 -9 0 -16 5 -16 10 0 6 4 10 9 10 6 0 13 -4 16 -10z m-786
-39 c-6 -18 -13 -30 -15 -28 -2 2 1 18 7 36 6 18 13 30 15 28 2 -2 -1 -18 -7
-36z m-200 -117 c10 -9 -66 -3 -79 6 -10 7 -1 8 30 4 25 -4 47 -8 49 -10z"/>
<path d="M11015 4650 c-10 -11 -16 -22 -13 -25 3 -3 13 6 22 20 20 30 16 32
-9 5z"/>
<path d="M14486 5982 c-13 -22 -28 -172 -23 -237 8 -103 24 -155 63 -200 19
-22 34 -37 34 -33 0 3 -14 48 -31 100 -38 112 -53 241 -38 316 10 51 8 75 -5
54z"/>
<path d="M14751 5883 c26 -33 51 -84 80 -166 27 -78 29 -80 29 -40 0 54 -87
223 -116 223 -4 0 -1 -8 7 -17z"/>
<path d="M15070 5816 c10 -29 23 -80 30 -112 12 -63 39 -134 51 -134 3 0 9
-18 13 -40 5 -34 10 -40 30 -40 24 0 41 -24 30 -41 -3 -5 2 -12 10 -15 10 -4
16 -19 16 -38 1 -33 20 -66 39 -66 16 0 14 -67 -3 -98 -8 -15 -19 -72 -25
-126 -14 -124 -40 -238 -52 -230 -5 3 -9 21 -9 40 0 28 -4 34 -21 34 -12 0
-35 15 -53 34 -33 35 -76 63 -76 48 0 -5 11 -46 25 -93 14 -46 24 -90 23 -98
-2 -8 -22 13 -45 46 -23 33 -49 65 -57 73 -14 11 -14 8 0 -31 8 -24 18 -71 21
-105 5 -53 3 -62 -13 -68 -20 -8 -50 23 -57 59 -2 11 -5 -1 -6 -26 l-1 -46
-68 -26 c-37 -15 -70 -27 -74 -27 -3 0 -39 -19 -79 -41 l-73 -41 -18 22 c-20
24 -24 19 -8 -10 9 -16 0 -25 -60 -67 -68 -46 -228 -194 -260 -239 -139 -198
-180 -274 -150 -274 23 0 95 -79 117 -128 30 -68 30 -90 -2 -98 -14 -3 -30
-15 -36 -26 -14 -27 -2 -36 15 -12 16 22 88 26 108 6 9 -9 3 -12 -30 -12 -45
0 -60 -23 -22 -33 12 -3 20 -14 20 -26 0 -12 12 -40 27 -64 15 -23 35 -59 44
-79 14 -30 24 -38 53 -42 20 -3 52 -8 71 -11 37 -6 79 -49 71 -72 -3 -8 2 -13
15 -13 11 0 46 -20 78 -45 31 -25 61 -45 66 -45 4 0 -10 15 -32 33 -56 44
-163 179 -291 362 -46 67 -49 75 -27 75 23 0 198 67 293 112 61 29 86 46 93
66 12 32 106 159 121 164 6 2 11 17 12 32 1 30 9 36 68 55 32 10 42 9 79 -10
36 -18 55 -21 110 -17 68 5 75 8 184 76 28 17 66 33 85 34 l35 3 32 -91 c17
-50 48 -163 69 -250 34 -145 37 -171 35 -290 -1 -142 -15 -207 -71 -330 -21
-48 -38 -69 -76 -95 -94 -65 -117 -66 -294 -21 -175 46 -360 78 -360 62 0 -5
4 -10 10 -10 5 0 17 -11 25 -24 15 -22 15 -28 1 -61 -9 -20 -27 -50 -41 -67
-14 -16 -25 -35 -25 -42 0 -6 -16 -44 -35 -85 -23 -48 -35 -87 -35 -115 0 -63
-20 -76 -111 -76 -93 -1 -147 -13 -226 -52 -53 -26 -69 -29 -107 -24 -39 6
-48 4 -78 -22 -70 -62 -98 -64 -238 -26 -97 27 -126 34 -240 54 -35 6 -92 20
-126 31 -66 21 -101 55 -142 136 -12 23 -26 44 -31 47 -5 4 -30 1 -55 -6 -56
-15 -52 -17 -256 122 -137 93 -197 143 -349 289 -477 457 -481 461 -529 461
-38 0 -50 6 -95 49 -38 35 -62 50 -88 53 l-36 4 -36 -98 c-20 -54 -49 -154
-64 -223 -15 -69 -31 -125 -35 -125 -5 0 -19 9 -31 21 -21 19 -21 21 -3 31 28
16 1 28 -65 28 l-56 0 -6 -37 c-4 -21 -9 -81 -13 -133 l-6 -95 71 -70 c40 -38
74 -81 77 -95 3 -14 8 -32 10 -41 4 -14 84 -71 235 -165 20 -12 90 -85 155
-162 65 -76 143 -157 173 -178 93 -66 174 -124 211 -148 19 -13 95 -79 169
-146 74 -67 151 -130 170 -140 20 -10 62 -48 95 -85 53 -60 71 -73 205 -139
162 -81 109 -69 511 -121 234 -31 266 -36 320 -54 30 -10 78 -24 105 -30 28
-7 100 -27 160 -46 61 -19 153 -41 205 -49 102 -15 422 -117 454 -145 10 -9
74 -84 143 -168 115 -141 128 -153 175 -169 29 -9 99 -45 157 -80 99 -59 120
-78 301 -270 111 -118 227 -231 270 -263 41 -30 125 -95 185 -144 61 -49 130
-98 155 -110 25 -12 66 -42 91 -67 40 -40 49 -57 68 -130 13 -47 27 -89 32
-95 5 -5 9 777 9 1948 0 1862 -1 1957 -17 1948 -10 -6 -55 -43 -101 -84 -64
-57 -104 -83 -178 -116 -62 -28 -106 -41 -127 -39 -30 3 -32 5 -48 75 -17 78
-40 120 -69 131 -10 4 -85 5 -167 2 -81 -3 -153 -4 -160 -2 -6 2 -13 29 -15
60 -4 53 -2 59 27 87 41 39 75 160 75 268 0 74 -2 79 -47 151 -36 57 -57 79
-83 90 -41 16 -59 6 -81 -45 -14 -34 -29 -23 -29 22 0 15 -13 70 -29 123 -15
52 -26 98 -23 101 10 9 129 5 161 -6 18 -6 35 -8 39 -4 8 8 -53 63 -85 76 -30
11 -29 40 3 70 52 48 111 136 142 211 18 42 32 82 32 88 0 6 -15 0 -33 -14
-18 -14 -53 -34 -78 -45 -50 -21 -155 -36 -163 -22 -9 15 40 67 107 113 l60
43 -42 3 c-24 2 -64 -4 -89 -12 -25 -9 -47 -16 -49 -16 -10 0 1 38 32 106 34
75 35 79 35 206 l0 130 -40 -80 c-54 -108 -140 -183 -164 -143 -6 8 35 88 78
154 32 47 13 38 -58 -29 -75 -69 -106 -81 -106 -39 0 39 39 132 76 180 42 55
24 59 -36 8 -42 -36 -62 -56 -122 -128 -32 -37 -50 -26 -67 43 -22 88 -54 177
-79 215 -14 20 -26 37 -28 37 -2 0 5 -24 16 -54z m-377 -1467 c26 -14 97 -80
97 -91 0 -4 -13 -8 -30 -8 -16 0 -30 -3 -30 -7 1 -13 34 -49 53 -56 9 -3 17
-11 17 -16 0 -20 -60 -68 -107 -85 -26 -9 -55 -21 -64 -26 -9 -4 -22 -4 -30 1
-8 5 -26 9 -41 9 -16 0 -28 5 -28 10 0 6 -15 20 -34 31 -25 15 -33 25 -29 40
4 13 -1 25 -13 34 -18 13 -18 14 4 38 13 13 21 34 20 47 -2 17 6 28 31 43 73
44 142 57 184 36z m167 -149 c0 -5 -5 -10 -11 -10 -5 0 -7 5 -4 10 3 6 8 10
11 10 2 0 4 -4 4 -10z m-250 -170 c0 -5 -5 -10 -11 -10 -5 0 -7 5 -4 10 3 6 8
10 11 10 2 0 4 -4 4 -10z m-168 -434 c16 -32 16 -34 -1 -29 -10 3 -24 16 -30
29 -14 32 -14 34 2 34 7 0 21 -15 29 -34z m776 -496 c19 0 14 -17 -7 -23 -12
-3 -27 3 -38 16 -18 20 -17 20 7 14 14 -4 31 -7 38 -7z"/>
<path d="M14575 5500 c3 -5 10 -10 16 -10 5 0 9 5 9 10 0 6 -7 10 -16 10 -8 0
-12 -4 -9 -10z"/>
<path d="M14011 5478 c-1 -9 -4 -23 -7 -32 -4 -11 -1 -16 10 -16 17 0 19 14 6
45 -7 16 -9 17 -9 3z"/>
<path d="M13795 5237 c-4 -10 -3 -23 4 -30 16 -16 26 0 14 25 -10 21 -11 22
-18 5z"/>
<path d="M11920 5060 c0 -5 5 -10 11 -10 5 0 7 5 4 10 -3 6 -8 10 -11 10 -2 0
-4 -4 -4 -10z"/>
<path d="M13505 4740 c3 -5 8 -10 11 -10 2 0 4 5 4 10 0 6 -5 10 -11 10 -5 0
-7 -4 -4 -10z"/>
<path d="M11352 4641 c-9 -5 8 -10 46 -14 78 -8 89 -13 117 -56 17 -24 25 -30
25 -18 0 33 -21 58 -63 78 -44 19 -103 25 -125 10z"/>
<path d="M12010 4508 c0 -19 2 -20 10 -8 13 19 13 30 0 30 -5 0 -10 -10 -10
-22z"/>
<path d="M13624 4384 c-17 -14 -17 -15 -1 -10 10 3 28 6 40 6 18 0 19 2 7 10
-20 13 -23 13 -46 -6z"/>
<path d="M11969 4328 c-1 -13 -3 -39 -5 -58 -3 -25 -1 -31 6 -20 5 8 10 23 10
32 0 9 5 18 11 20 14 5 3 48 -12 48 -5 0 -10 -10 -10 -22z"/>
<path d="M11968 4077 c-12 -29 -10 -63 3 -50 6 6 9 23 7 39 -2 24 -4 26 -10
11z"/>
<path d="M15322 3769 c-39 -49 -83 -96 -96 -104 -14 -9 -62 -23 -107 -31 -90
-16 -111 -24 -58 -24 43 1 148 23 175 38 29 15 174 188 174 206 0 17 -22 -4
-88 -85z"/>
<path d="M14221 3720 c0 -40 53 -159 77 -176 l22 -15 -24 44 c-12 25 -31 69
-42 98 -22 64 -34 82 -33 49z"/>
<path d="M14942 3628 c3 -7 22 -14 44 -15 l39 -2 -35 14 c-45 17 -53 18 -48 3z"/>
<path d="M14340 3510 c0 -11 69 -45 76 -37 2 2 -14 14 -36 26 -23 13 -40 17
-40 11z"/>
<path d="M1871 1764 l-63 -184 -49 0 c-46 0 -49 -1 -39 -19 13 -26 41 -34 73
-22 22 8 33 34 90 205 36 108 62 198 59 200 -4 2 -36 -79 -71 -180z"/>
<path d="M2248 1939 c-10 -5 -18 -22 -18 -36 0 -20 3 -24 18 -17 9 5 36 8 59
8 32 0 49 -6 71 -27 32 -30 79 -36 89 -11 7 19 -13 34 -45 34 -14 0 -36 13
-52 30 -22 23 -36 30 -67 30 -21 0 -46 -5 -55 -11z"/>
<path d="M3291 1924 c-30 -25 -51 -77 -51 -124 1 -21 3 -19 14 13 18 50 31 64
72 77 47 16 100 -2 125 -44 23 -38 25 -21 3 34 -28 70 -107 92 -163 44z"/>
<path d="M5468 1939 c-10 -5 -18 -21 -18 -34 0 -22 2 -24 24 -14 34 16 88 3
116 -26 27 -29 77 -34 87 -9 7 18 -12 34 -40 34 -11 0 -32 14 -47 30 -22 23
-36 30 -67 30 -21 0 -46 -5 -55 -11z"/>
<path d="M9094 1916 c-42 -42 -49 -79 -9 -47 37 28 77 35 118 17 37 -15 55
-40 68 -91 7 -30 7 -30 8 7 3 126 -106 193 -185 114z"/>
<path d="M6841 1918 c-4 -13 -28 -94 -52 -180 l-44 -158 -47 0 c-52 0 -60 -10
-26 -34 62 -44 71 -27 167 322 19 68 20 99 2 50z"/>
<path d="M860 1898 c0 -25 3 -29 12 -20 20 20 102 15 132 -9 22 -17 26 -18 26
-4 0 9 -11 27 -25 40 -20 21 -34 25 -85 25 l-60 0 0 -32z"/>
<path d="M1300 1898 c0 -25 3 -29 12 -20 8 8 46 12 105 12 82 0 93 2 103 20
10 19 8 20 -105 20 l-115 0 0 -32z"/>
<path d="M2830 1908 c0 -22 4 -23 55 -20 50 4 57 1 85 -26 19 -19 30 -41 30
-58 0 -15 3 -25 6 -21 14 14 -8 100 -31 123 -20 20 -34 24 -85 24 -56 0 -60
-2 -60 -22z"/>
<path d="M4190 1916 c0 -17 22 -26 65 -26 19 0 41 -7 49 -16 15 -14 16 -12 16
20 l0 36 -65 0 c-49 0 -65 -3 -65 -14z"/>
<path d="M4412 1908 c2 -13 6 -22 11 -20 4 1 27 2 52 2 34 0 47 5 55 20 10 19
8 20 -55 20 -63 0 -66 -1 -63 -22z"/>
<path d="M5870 1898 c0 -25 3 -29 12 -20 8 8 46 12 105 12 82 0 93 2 103 20
10 19 8 20 -105 20 l-115 0 0 -32z"/>
<path d="M7490 1922 c0 -19 27 -32 65 -32 23 0 46 -5 53 -12 9 -9 12 -5 12 20
l0 32 -65 0 c-36 0 -65 -4 -65 -8z"/>
<path d="M7710 1906 c0 -22 3 -23 53 -18 51 4 77 16 77 33 0 5 -29 9 -65 9
-62 0 -65 -1 -65 -24z"/>
<path d="M7990 1898 c0 -25 3 -29 12 -20 8 8 46 12 105 12 82 0 93 2 103 20
10 19 8 20 -105 20 l-115 0 0 -32z"/>
<path d="M9540 1907 c0 -20 4 -22 45 -19 65 6 93 -4 116 -41 12 -17 18 -24 15
-14 -3 10 -6 25 -6 33 0 8 -11 26 -25 39 -20 21 -34 25 -85 25 -56 0 -60 -2
-60 -23z"/>
<path d="M9980 1908 c0 -23 2 -23 100 -20 87 3 101 6 110 23 10 18 6 19 -100
19 -107 0 -110 -1 -110 -22z"/>
<path d="M8761 1762 c-18 -81 -34 -155 -37 -164 -4 -14 -16 -18 -55 -18 -46 0
-49 -1 -39 -19 14 -28 47 -35 73 -18 16 11 29 42 50 118 27 100 52 238 44 245
-2 2 -18 -62 -36 -144z"/>
<path d="M6561 1774 c-13 -70 -28 -143 -33 -162 -9 -33 -10 -34 -57 -30 -46 3
-48 2 -38 -19 16 -36 79 -39 92 -5 5 14 45 197 45 207 0 2 7 11 16 19 12 13
14 26 7 67 l-8 50 -24 -127z"/>
<path d="M8552 1810 c0 -47 3 -75 5 -62 2 12 9 20 14 17 12 -8 11 9 -6 75
l-13 55 0 -85z"/>
<path d="M3730 1833 c0 -26 5 -43 14 -46 8 -3 40 -51 71 -107 32 -56 65 -110
74 -120 23 -28 65 -35 85 -15 26 26 19 35 -28 35 l-44 0 -82 143 c-46 78 -84
144 -86 146 -2 2 -4 -14 -4 -36z"/>
<path d="M5350 1847 c0 -34 29 -86 57 -101 16 -8 58 -22 93 -31 36 -9 75 -23
88 -31 20 -13 23 -13 29 2 12 31 -13 49 -103 75 -101 29 -125 41 -147 78 -13
20 -17 22 -17 8z"/>
<path d="M2020 1836 c0 -22 19 -30 35 -16 22 18 18 30 -10 30 -15 0 -25 -6
-25 -14z"/>
<path d="M4080 1841 c0 -14 28 -33 40 -26 20 12 10 35 -15 35 -14 0 -25 -4
-25 -9z"/>
<path d="M2150 1809 c0 -20 20 -49 43 -61 12 -6 56 -21 97 -34 41 -12 83 -25
93 -29 13 -5 17 -2 17 13 0 29 -17 38 -105 62 -44 12 -95 30 -112 41 -18 10
-33 14 -33 8z"/>
<path d="M1300 1733 c0 -29 3 -34 12 -25 7 7 42 12 86 12 77 0 112 11 112 35
0 12 -19 15 -105 15 l-105 0 0 -37z"/>
<path d="M5870 1733 c0 -29 3 -34 12 -25 7 7 43 12 89 12 75 0 109 13 109 41
0 5 -47 9 -105 9 l-105 0 0 -37z"/>
<path d="M7010 1748 c0 -22 3 -23 65 -20 42 2 71 -1 80 -8 13 -11 15 -7 15 19
l0 31 -80 0 c-76 0 -80 -1 -80 -22z"/>
<path d="M7990 1733 c0 -29 3 -34 12 -25 7 7 43 12 89 12 75 0 109 13 109 41
0 5 -47 9 -105 9 l-105 0 0 -37z"/>
<path d="M9980 1743 l0 -28 90 5 c87 5 109 14 110 43 0 4 -45 7 -100 7 l-100
0 0 -27z"/>
<path d="M8951 1748 c-3 -43 22 -118 51 -153 40 -48 82 -65 158 -65 75 0 129
26 165 77 28 42 33 69 7 38 -37 -44 -82 -67 -141 -72 -118 -11 -204 50 -232
162 -4 17 -7 22 -8 13z"/>
<path d="M1121 1698 c-1 -23 -57 -85 -92 -104 -20 -10 -62 -14 -144 -14 -94 0
-115 -3 -115 -15 0 -24 35 -35 112 -35 88 1 143 12 177 38 32 24 74 104 68
129 -4 16 -5 16 -6 1z"/>
<path d="M3547 1690 c-37 -126 -245 -161 -346 -58 -17 18 -31 27 -31 21 0 -22
48 -79 85 -101 34 -19 52 -22 116 -20 65 3 81 7 112 31 42 32 80 98 75 130 -3
21 -4 21 -11 -3z"/>
<path d="M9801 1698 c-1 -23 -57 -85 -92 -104 -20 -10 -62 -14 -144 -14 -94 0
-115 -3 -115 -15 0 -28 40 -38 140 -33 123 6 161 26 197 105 14 29 22 59 20
66 -3 7 -6 5 -6 -5z"/>
<path d="M2473 1637 c-37 -80 -231 -90 -310 -15 l-23 22 11 -32 c19 -54 62
-77 154 -80 64 -2 87 1 114 16 35 19 76 81 69 103 -2 6 -9 0 -15 -14z"/>
<path d="M3064 1646 c-3 -9 -25 -28 -49 -41 -38 -23 -52 -25 -163 -25 -69 0
-122 -4 -122 -9 0 -28 34 -41 108 -41 92 1 146 12 181 38 29 21 67 80 57 89
-3 3 -8 -2 -12 -11z"/>
<path d="M4940 1640 c0 -26 38 -79 69 -95 38 -19 152 -20 189 -1 35 18 58 44
72 81 l11 29 -25 -27 c-73 -78 -244 -75 -300 5 -11 15 -16 17 -16 8z"/>
<path d="M5350 1638 c0 -27 39 -75 73 -91 39 -19 150 -23 192 -7 25 10 75 56
75 70 0 4 -21 -3 -47 -16 -84 -43 -228 -24 -265 35 -14 23 -28 27 -28 9z"/>
<path d="M1210 1571 c0 -5 7 -17 16 -25 23 -23 275 -23 298 0 9 8 16 20 16 25
0 5 -70 9 -165 9 -95 0 -165 -4 -165 -9z"/>
<path d="M3640 1565 c0 -22 36 -38 60 -25 35 19 24 40 -20 40 -28 0 -40 -4
-40 -15z"/>
<path d="M4320 1565 c0 -19 34 -37 55 -29 8 4 20 15 26 25 9 17 6 19 -36 19
-33 0 -45 -4 -45 -15z"/>
<path d="M5780 1565 c0 -29 39 -37 176 -33 133 3 153 8 154 41 0 4 -74 7 -165
7 -138 0 -165 -2 -165 -15z"/>
<path d="M6910 1573 c1 -44 90 -51 90 -8 0 11 -12 15 -45 15 -25 0 -45 -3 -45
-7z"/>
<path d="M7170 1573 c1 -44 90 -51 90 -8 0 11 -12 15 -45 15 -25 0 -45 -3 -45
-7z"/>
<path d="M7350 1565 c0 -32 62 -40 82 -11 15 21 8 26 -37 26 -33 0 -45 -4 -45
-15z"/>
<path d="M7620 1565 c0 -32 62 -40 82 -11 15 21 8 26 -37 26 -33 0 -45 -4 -45
-15z"/>
<path d="M7900 1571 c0 -5 7 -17 16 -25 23 -23 275 -23 298 0 9 8 16 20 16 25
0 5 -70 9 -165 9 -95 0 -165 -4 -165 -9z"/>
<path d="M8470 1565 c0 -22 36 -38 60 -25 35 19 24 40 -20 40 -28 0 -40 -4
-40 -15z"/>
<path d="M8810 1565 c0 -30 54 -38 72 -11 14 21 8 26 -32 26 -28 0 -40 -4 -40
-15z"/>
<path d="M9880 1565 c0 -27 38 -35 169 -35 104 0 133 3 145 16 9 8 16 20 16
25 0 5 -70 9 -165 9 -138 0 -165 -2 -165 -15z"/>
</g>
</svg>
