<?xml version="1.0" encoding="utf-8"?>
<!-- Generator: Adobe Illustrator 27.1.1, SVG Export Plug-In . SVG Version: 6.00 Build 0)  -->
<svg version="1.1" id="svg" xmlns="http://www.w3.org/2000/svg" xmlns:xlink="http://www.w3.org/1999/xlink" x="0px" y="0px"
	 viewBox="0 0 841.9 120" style="enable-background:new 0 0 841.9 120;" xml:space="preserve">
<style type="text/css">
	.st0{fill:#FFCB05;}
	.st1{fill:#FFB000;}
</style>
<g>
	<path class="st0" d="M515.5,20.4c-48,0.1-96.1,0.2-144.1,0.4l80.4,87.3L448,85.5c-16-17.3-32-34.7-48.1-52
		c31.5,0.3,63,0.6,94.4,0.8C501.4,29.7,508.5,25,515.5,20.4z"/>
	<path class="st1" d="M489.4,38.9c-27.2-0.6-54.5-1.1-81.7-1.7c7.1,6.9,14.1,13.8,21.2,20.7c9.1,0.1,18.3,0.2,27.4,0.3
		c-3.2,2.5-6.3,5-9.5,7.6h-7.5l7.5,9.2l17.7-15.4l9.2-7.3c-14.4-0.3-28.7-0.6-43.1-0.8c-2-1.9-4-3.7-6-5.6
		c18.6,0.3,37.2,0.6,55.8,0.8C483.4,44.1,486.4,41.5,489.4,38.9z"/>
</g>
</svg>
